<svg width="155" height="30" viewBox="0 0 155 30" fill="none" xmlns="http://www.w3.org/2000/svg">
<path d="M0 0H30V10V30H20V16.9231L6.92308 30H0V22.6923L12.6923 10H0V0Z" fill="black"/>
<path d="M49.328 8.752C54.16 8.752 57.584 12.528 57.584 17.584C57.584 22.608 54.064 26.384 49.232 26.384C46.864 26.384 44.976 25.456 43.664 23.856V26H39.888V2.608H43.952V10.992C45.264 9.584 47.088 8.752 49.328 8.752ZM48.688 22.8C51.472 22.8 53.52 20.592 53.52 17.584C53.52 14.576 51.472 12.368 48.688 12.368C45.776 12.368 43.792 14.48 43.792 17.584C43.792 20.656 45.776 22.8 48.688 22.8ZM62.5298 6.448C60.9618 6.448 59.7458 5.328 59.7458 3.76C59.7458 2.192 60.9618 1.008 62.5298 1.008C64.0978 1.008 65.3138 2.192 65.3138 3.76C65.3138 5.328 64.0978 6.448 62.5298 6.448ZM60.4818 26V9.136H64.5458V26H60.4818ZM75.8455 26C71.8135 26 69.7335 23.6 69.7335 19.888V12.624H66.7895V9.136H68.3255C69.4455 9.136 69.9895 8.56 69.9895 7.408V4.752H73.9575V9.136H78.3735V12.624H73.8295V19.44C73.8295 21.392 74.8215 22.448 76.6455 22.448H78.5015V26H75.8455ZM100.185 9.136H104.345L99.9288 26H95.1287L91.8328 13.712L88.5688 26H83.7688L79.2888 9.136H83.4488L86.3608 22.032L89.5608 9.136H94.1048L97.3048 21.968L100.185 9.136ZM108.561 6.448C106.993 6.448 105.777 5.328 105.777 3.76C105.777 2.192 106.993 1.008 108.561 1.008C110.129 1.008 111.345 2.192 111.345 3.76C111.345 5.328 110.129 6.448 108.561 6.448ZM106.513 26V9.136H110.577V26H106.513ZM120.309 26.384C116.661 26.384 114.005 24.912 113.077 22.064L116.629 20.688C117.109 22.256 118.421 23.184 120.469 23.184C122.101 23.184 123.125 22.512 123.125 21.328C123.125 18 113.877 19.536 113.877 13.744C113.877 10.672 116.437 8.752 120.405 8.752C123.669 8.752 126.037 10.096 126.741 12.4L123.189 13.776C122.741 12.496 121.749 11.888 120.341 11.888C118.837 11.888 118.037 12.528 118.037 13.552C118.037 16.624 127.285 14.864 127.285 21.04C127.285 24.4 124.533 26.384 120.309 26.384ZM133.053 18.864C133.597 21.392 135.549 22.928 138.077 22.928C140.381 22.928 141.597 22.064 142.365 20.56L145.565 22.608C144.285 24.688 142.045 26.416 137.949 26.416C132.573 26.416 129.053 22.608 129.053 17.584C129.053 12.688 132.861 8.752 137.693 8.752C143.005 8.752 146.237 12.912 146.237 17.232C146.237 17.872 146.205 18.512 146.141 18.864H133.053ZM133.053 16.016H142.333C141.885 13.488 140.157 11.952 137.789 11.952C135.421 11.952 133.565 13.424 133.053 16.016Z" fill="black"/>
<path d="M149.915 21.5681V22.3131H148.905V25.0431H148.07V22.3131H147.06V21.5681H149.915ZM154.025 25.0431H153.245L153.075 22.8031L152.405 24.9331H151.71L151.04 22.7931L150.87 25.0431H150.095L150.35 21.5681H151.325L152.055 23.8881L152.79 21.5681H153.76L154.025 25.0431Z" fill="black"/>
</svg>
