<svg width="134" height="150" viewBox="0 0 134 150" fill="none" xmlns="http://www.w3.org/2000/svg">
<rect x="65" y="29" width="4" height="8" fill="#B5C3CA" stroke="#A3B0B6" stroke-width="2"/>
<circle cx="66" cy="75" r="38" fill="#B5C3CA" stroke="#A3B0B6" stroke-width="2"/>
<path d="M42.752 44H91.248C93.1922 44 95.0596 44.5999 96.4736 45.8184C105.401 53.512 111 64.6356 111 77C111 100.154 91.3439 119 67 119C42.6561 119 23 100.154 23 77C23 64.6356 28.5986 53.512 37.5264 45.8184C38.9404 44.5999 40.8078 44 42.752 44Z" fill="#B5C3CA" stroke="#A3B0B6" stroke-width="2"/>
<path d="M42.4688 44H91.5312C93.3159 44 95.0365 44.5043 96.3965 45.5469C105.391 52.4424 111 62.415 111 73.4678C111 84.083 109.736 93.3734 103.755 100.047C97.7885 106.703 86.8961 111 67 111C48.1226 111 37.2077 106.712 30.9814 100.032C24.7466 93.3437 23 84.035 23 73.4678C23 62.415 28.609 52.4424 37.6035 45.5469C38.9634 44.5043 40.6841 44 42.4688 44Z" fill="#E7E9EB" stroke="#A3B0B6" stroke-width="2"/>
<circle cx="67" cy="20" r="9" fill="black"/>
<rect x="30" y="53" width="75" height="41" rx="20" fill="#96A9B0"/>
<rect x="33" y="56" width="69" height="35" rx="17.5" fill="black"/>
<path d="M43 74.1808C43.038 65.9449 55.5437 65.9345 55.5 74.1809" stroke="#76F75C" stroke-width="4" stroke-linecap="round"/>
<path d="M78.5001 74.1808C78.5381 65.9449 91.0438 65.9345 91.0001 74.1809" stroke="#76F75C" stroke-width="4" stroke-linecap="round"/>
<path d="M59 80H76C76 84.4183 72.4183 88 68 88H67C62.5817 88 59 84.4183 59 80Z" fill="white"/>
<circle cx="125" cy="65" r="8" fill="#E7E9EB" stroke="#A3B0B6" stroke-width="2"/>
<circle cx="9" cy="65" r="8" fill="#E7E9EB" stroke="#A3B0B6" stroke-width="2"/>
<ellipse cx="67" cy="142.5" rx="25" ry="7.5" fill="#DBE9EB"/>
<path d="M104.316 9.42737C105.614 8.35755 107.573 9.27088 107.588 10.9531L107.636 16.3765C107.642 17.0535 107.99 17.6814 108.561 18.0453L113.135 20.9602C114.553 21.8642 114.29 24.0093 112.695 24.5433L107.552 26.2651C106.91 26.48 106.42 27.0051 106.25 27.6606L104.892 32.9112C104.47 34.5398 102.349 34.9521 101.348 33.6L98.121 29.2407C97.7182 28.6966 97.0674 28.3931 96.3917 28.4344L90.9781 28.7646C89.299 28.867 88.2513 26.9768 89.2279 25.6072L92.3767 21.1912C92.7698 20.6399 92.8573 19.9273 92.6092 19.2973L90.6223 14.2508C90.006 12.6855 91.4799 11.1049 93.0844 11.6105L98.2572 13.2406C98.9029 13.4441 99.6078 13.3071 100.13 12.8765L104.316 9.42737Z" fill="#FBB200"/>
<path d="M26.4637 10.9531C26.4786 9.2709 28.4373 8.35757 29.7355 9.42739L33.9211 12.8766C34.4435 13.3071 35.1483 13.4441 35.7941 13.2406L40.9669 11.6106C42.5714 11.105 44.0453 12.6855 43.429 14.2508L41.442 19.2974C41.194 19.9273 41.2815 20.64 41.6746 21.1912L44.8234 25.6072C45.8 26.9769 44.7523 28.867 43.0732 28.7646L37.6596 28.4344C36.9839 28.3932 36.3331 28.6966 35.9303 29.2408L32.7035 33.6001C31.7027 34.9522 29.5812 34.5398 29.1598 32.9112L27.801 27.6606C27.6313 27.0051 27.1417 26.48 26.4997 26.2651L21.3566 24.5433C19.7614 24.0093 19.498 21.8643 20.9166 20.9602L25.4904 18.0453C26.0613 17.6815 26.4094 17.0535 26.4154 16.3765L26.4637 10.9531Z" fill="#FBB200"/>
<path d="M5.80262 42.0206C5.16311 41.4743 5.44278 40.4305 6.26979 40.2771L10.2512 39.5385C10.5841 39.4768 10.8631 39.2508 10.9927 38.9381L12.5429 35.1972C12.8649 34.4202 13.944 34.3637 14.3454 35.1028L16.2782 38.6611C16.4398 38.9586 16.7409 39.1541 17.0783 39.1807L21.1152 39.4991C21.9537 39.5652 22.3409 40.574 21.762 41.1842L18.9751 44.122C18.7421 44.3676 18.6492 44.7144 18.7282 45.0435L19.6729 48.9812C19.8691 49.7991 19.0293 50.4791 18.2701 50.1171L14.6149 48.3744C14.3093 48.2287 13.9508 48.2475 13.6622 48.4243L10.2092 50.5396C9.49193 50.9789 8.5857 50.3904 8.69535 49.5565L9.22324 45.5417C9.26737 45.206 9.13872 44.8709 8.88135 44.651L5.80262 42.0206Z" fill="#FBB200"/>
<path d="M125.802 40.6117C126.629 40.7652 126.909 41.8089 126.269 42.3553L123.19 44.9856C122.933 45.2055 122.804 45.5407 122.849 45.8763L123.376 49.8911C123.486 50.725 122.58 51.3135 121.863 50.8742L118.41 48.759C118.121 48.5821 117.762 48.5633 117.457 48.709L113.802 50.4517C113.042 50.8137 112.203 50.1337 112.399 49.3158L113.344 45.3781C113.423 45.049 113.33 44.7022 113.097 44.4566L110.31 41.5189C109.731 40.9086 110.118 39.8999 110.957 39.8337L114.993 39.5154C115.331 39.4887 115.632 39.2932 115.794 38.9957L117.726 35.4374C118.128 34.6983 119.207 34.7548 119.529 35.5319L121.079 39.2728C121.209 39.5855 121.488 39.8114 121.821 39.8731L125.802 40.6117Z" fill="#FBB200"/>
</svg>
