<svg width="166" height="151" viewBox="0 0 166 151" fill="none" xmlns="http://www.w3.org/2000/svg">
<rect x="93.0029" y="23.7031" width="4" height="8" transform="rotate(7.84831 93.0029 23.7031)" fill="#B5C3CA" stroke="#A3B0B6" stroke-width="2"/>
<circle cx="87.7122" cy="69.4088" r="38" transform="rotate(7.84831 87.7122 69.4088)" fill="#B5C3CA" stroke="#A3B0B6" stroke-width="2"/>
<path d="M68.9149 35.5246L116.957 42.1468C118.883 42.4123 120.651 43.2616 121.885 44.6617C129.679 53.5024 133.706 65.2863 132.018 77.5349C128.856 100.472 106.81 116.457 82.6945 113.133C58.5787 109.809 41.6802 88.4551 44.8418 65.5184C46.5302 53.2698 53.5953 43.0149 63.49 36.6124C65.0572 35.5984 66.989 35.2592 68.9149 35.5246Z" fill="#B5C3CA" stroke="#A3B0B6" stroke-width="2"/>
<path d="M68.6344 35.486L117.237 42.1855C119.005 42.4292 120.641 43.1637 121.846 44.3822C129.814 52.4414 134.009 63.0865 132.5 74.0357C131.05 84.5515 128.53 93.5824 121.693 99.3765C114.874 105.156 103.497 107.925 83.7869 105.208C65.0863 102.63 54.8593 96.8918 49.6034 89.4248C44.3403 81.9475 43.8812 72.4875 45.3241 62.0193C46.8334 51.0701 53.7516 41.9568 63.6035 36.354C65.093 35.5069 66.8664 35.2423 68.6344 35.486Z" fill="#E7E9EB" stroke="#A3B0B6" stroke-width="2"/>
<circle cx="96.2131" cy="15.0604" r="8.5" transform="rotate(7.84831 96.2131 15.0604)" fill="black" stroke="black"/>
<rect x="55.0535" y="42.699" width="75" height="41" rx="20" transform="rotate(7.84831 55.0535 42.699)" fill="#9CABB2"/>
<rect x="57.6157" y="46.0806" width="69" height="35" rx="17.5" transform="rotate(7.84831 57.6157 46.0806)" fill="black"/>
<path d="M65.0394 65.4566C66.2017 57.303 78.5917 59.0003 77.4223 67.1635" stroke="#76F75C" stroke-width="4" stroke-linecap="round"/>
<path d="M100.207 70.3041C101.369 62.1505 113.759 63.8478 112.59 72.011" stroke="#76F75C" stroke-width="4" stroke-linecap="round"/>
<path d="M79.4691 74.5292H96.4691V74.5292C96.4691 78.9475 92.8874 82.5292 88.4691 82.5292H87.4691C83.0508 82.5292 79.4691 78.9475 79.4691 74.5292V74.5292Z" fill="white"/>
<circle cx="119" cy="86" r="8" fill="#E7E9EB" stroke="#A3B0B6" stroke-width="2"/>
<rect x="30.5226" y="54.4053" width="46" height="3" transform="rotate(-131.57 30.5226 54.4053)" fill="#583131"/>
<circle cx="32" cy="51.6343" r="8" fill="#E7E9EB" stroke="#A3B0B6" stroke-width="2"/>
<ellipse cx="88" cy="142.769" rx="25" ry="7.5" fill="#DBE9EB"/>
<path d="M141.062 10.9531C141.047 9.2709 139.088 8.35757 137.79 9.42739L133.605 12.8766C133.082 13.3071 132.377 13.4441 131.732 13.2406L126.559 11.6106C124.954 11.105 123.48 12.6855 124.097 14.2508L126.084 19.2974C126.332 19.9273 126.244 20.64 125.851 21.1912L122.702 25.6072C121.726 26.9769 122.773 28.867 124.452 28.7646L129.866 28.4344C130.542 28.3932 131.193 28.6966 131.595 29.2408L134.822 33.6001C135.823 34.9522 137.944 34.5398 138.366 32.9112L139.725 27.6606C139.894 27.0051 140.384 26.48 141.026 26.2651L146.169 24.5433C147.764 24.0093 148.028 21.8643 146.609 20.9602L142.035 18.0453C141.464 17.6815 141.116 17.0535 141.11 16.3765L141.062 10.9531Z" fill="#FBB200"/>
<path d="M161.723 42.0206C162.363 41.4743 162.083 40.4305 161.256 40.2771L157.274 39.5385C156.942 39.4768 156.663 39.2508 156.533 38.9381L154.983 35.1972C154.661 34.4202 153.582 34.3637 153.18 35.1028L151.247 38.6611C151.086 38.9586 150.785 39.1541 150.447 39.1807L146.41 39.4991C145.572 39.5652 145.185 40.574 145.764 41.1842L148.551 44.122C148.783 44.3676 148.876 44.7144 148.797 45.0435L147.853 48.9812C147.657 49.7991 148.496 50.4791 149.256 50.1171L152.911 48.3744C153.216 48.2287 153.575 48.2475 153.863 48.4243L157.316 50.5396C158.034 50.9789 158.94 50.3904 158.83 49.5565L158.302 45.5417C158.258 45.206 158.387 44.8709 158.644 44.651L161.723 42.0206Z" fill="#FBB200"/>
</svg>
