<svg width="166" height="151" viewBox="0 0 166 151" fill="none" xmlns="http://www.w3.org/2000/svg">
<rect x="92.5758" y="23.1395" width="5" height="9" transform="rotate(7.84831 92.5758 23.1395)" fill="#B5C3CA" stroke="black"/>
<circle cx="87.7122" cy="69.4088" r="38.5" transform="rotate(7.84831 87.7122 69.4088)" fill="#B5C3CA" stroke="black"/>
<path d="M68.9832 35.0293L117.025 41.6515C119.05 41.9306 120.935 42.8268 122.261 44.331C130.144 53.2728 134.222 65.2002 132.513 77.6031C129.311 100.834 106.994 116.987 82.6262 113.628C58.2583 110.27 41.1442 88.6813 44.3465 65.4501C46.0561 53.0472 53.2098 42.6681 63.2176 36.1923C64.9011 35.103 66.9584 34.7502 68.9832 35.0293Z" fill="#B5C3CA" stroke="black"/>
<path d="M68.7026 34.9906L117.306 41.6901C119.164 41.9463 120.908 42.7221 122.202 44.031C130.262 52.1834 134.529 62.9783 132.995 74.1039C131.544 84.6322 129.007 93.8341 122.017 99.7583C115.036 105.675 103.48 108.427 83.7186 105.703C64.9575 103.117 54.5665 97.3435 49.1951 89.7124C43.82 82.0762 43.3809 72.4554 44.8288 61.9509C46.3624 50.8252 53.3902 41.5872 63.3558 35.9196C64.9558 35.0096 66.844 34.7344 68.7026 34.9906Z" fill="#E7E9EB" stroke="black"/>
<circle cx="96.2131" cy="15.0605" r="8.5" transform="rotate(7.84831 96.2131 15.0605)" fill="black" stroke="black"/>
<rect x="55.4805" y="43.2626" width="74" height="40" rx="19.5" transform="rotate(7.84831 55.4805 43.2626)" fill="#9CABB2" stroke="black"/>
<rect x="57.6157" y="46.0806" width="69" height="35" rx="17.5" transform="rotate(7.84831 57.6157 46.0806)" fill="black"/>
<path d="M65.0394 65.4566C66.2017 57.303 78.5917 59.0003 77.4223 67.1635" stroke="#76F75C" stroke-width="4" stroke-linecap="round"/>
<path d="M100.207 70.3042C101.369 62.1506 113.759 63.8479 112.59 72.0111" stroke="#76F75C" stroke-width="4" stroke-linecap="round"/>
<path d="M79.4691 74.5292H96.4691V74.5292C96.4691 78.9475 92.8874 82.5292 88.4691 82.5292H87.4691C83.0508 82.5292 79.4691 78.9475 79.4691 74.5292V74.5292Z" fill="white"/>
<circle cx="119" cy="88.6343" r="9" fill="#B5C3CA"/>
<circle cx="119" cy="83.6343" r="8.5" fill="#E7E9EB" stroke="black"/>
<rect x="30.5649" y="53.6994" width="45" height="2" transform="rotate(-131.57 30.5649 53.6994)" fill="#583131" stroke="black"/>
<circle cx="32" cy="51.6343" r="8.5" fill="#E7E9EB" stroke="black"/>
<path d="M88 135.769C94.8689 135.769 101.068 136.605 105.534 137.944C107.77 138.615 109.543 139.404 110.746 140.257C111.962 141.119 112.5 141.975 112.5 142.769C112.5 143.562 111.962 144.418 110.746 145.28C109.543 146.133 107.77 146.922 105.534 147.593C101.068 148.932 94.8689 149.769 88 149.769C81.1311 149.769 74.9316 148.932 70.4658 147.593C68.2299 146.922 66.4568 146.133 65.2539 145.28C64.038 144.418 63.5 143.562 63.5 142.769C63.5 141.975 64.038 141.119 65.2539 140.257C66.4568 139.404 68.2299 138.615 70.4658 137.944C74.9316 136.605 81.1311 135.769 88 135.769Z" fill="#CDD9DA" stroke="black"/>
<path d="M140.562 10.9574C140.55 9.69589 139.082 9.01114 138.108 9.81335L133.923 13.2621C133.27 13.8003 132.388 13.9719 131.581 13.7175L126.408 12.0877C125.205 11.7085 124.099 12.8939 124.562 14.0679L126.549 19.1139C126.859 19.9013 126.75 20.7925 126.258 21.4815L123.11 25.8976C122.377 26.9249 123.163 28.3428 124.422 28.266L129.836 27.935C130.68 27.8836 131.494 28.2629 131.997 28.9429L135.224 33.3028C135.974 34.3168 137.565 34.0072 137.881 32.7858L139.24 27.5352C139.453 26.716 140.065 26.0595 140.867 25.7908L146.01 24.0696C147.207 23.6691 147.404 22.0601 146.34 21.382L141.767 18.467C141.053 18.0122 140.618 17.2268 140.61 16.3806L140.562 10.9574Z" fill="#FBB200" stroke="black"/>
<path d="M161.398 41.6403C161.718 41.3671 161.578 40.8455 161.165 40.7687L157.183 40.03C156.684 39.9373 156.265 39.5986 156.071 39.1298L154.521 35.389C154.36 35.0005 153.82 34.9718 153.619 35.3414L151.686 38.8994C151.444 39.3456 150.993 39.6389 150.487 39.6788L146.45 39.9971C146.031 40.0302 145.837 40.5351 146.126 40.8402L148.913 43.7776C149.262 44.146 149.402 44.6667 149.283 45.1605L148.339 49.0977C148.241 49.5067 148.661 49.8468 149.041 49.6658L152.696 47.9232C153.154 47.7047 153.691 47.7332 154.124 47.9984L157.577 50.1132C157.936 50.3329 158.389 50.0383 158.334 49.6213L157.806 45.6065C157.74 45.1033 157.933 44.6008 158.319 44.271L161.398 41.6403Z" fill="#FBB200" stroke="black"/>
</svg>
