<svg width="166" height="151" viewBox="0 0 166 151" fill="none" xmlns="http://www.w3.org/2000/svg">
<rect x="-0.427041" y="0.563592" width="5" height="9" transform="matrix(-0.990633 0.136551 0.136551 0.990633 72.8287 22.6395)" fill="#B5C3CA" stroke="black"/>
<circle cx="39" cy="39" r="38.5" transform="matrix(-0.990633 0.136551 0.136551 0.990633 111.502 25.4486)" fill="#B5C3CA" stroke="black"/>
<path d="M96.9213 35.0293L48.8795 41.6515C46.8547 41.9306 44.9696 42.8268 43.6436 44.331C35.761 53.2728 31.6821 65.2002 33.3917 77.6031C36.594 100.834 58.9104 116.987 83.2783 113.628C107.646 110.27 124.76 88.6813 121.558 65.4501C119.848 53.0472 112.695 42.6681 102.687 36.1923C101.003 35.103 98.9462 34.7502 96.9213 35.0293Z" fill="#B5C3CA" stroke="black"/>
<path d="M97.2019 34.9906L48.599 41.6901C46.7403 41.9463 44.997 42.7221 43.7028 44.031C35.6422 52.1834 31.3758 62.9783 32.9094 74.1039C34.3606 84.6322 36.8972 93.8341 43.8874 99.7583C50.8689 105.675 62.4246 108.427 82.1859 105.703C100.947 103.117 111.338 97.3435 116.709 89.7124C122.084 82.0762 122.524 72.4554 121.076 61.9509C119.542 50.8252 112.514 41.5872 102.549 35.9196C100.949 35.0096 99.0606 34.7344 97.2019 34.9906Z" fill="#E7E9EB" stroke="black"/>
<circle cx="9" cy="9" r="8.5" transform="matrix(-0.990633 0.136551 0.136551 0.990633 77.3782 4.91583)" fill="black" stroke="black"/>
<rect x="-0.427041" y="0.563592" width="74" height="40" rx="19.5" transform="matrix(-0.990633 0.136551 0.136551 0.990633 109.924 42.7626)" fill="#9CABB2" stroke="black"/>
<rect width="69" height="35" rx="17.5" transform="matrix(-0.990633 0.136551 0.136551 0.990633 108.289 46.0806)" fill="black"/>
<path d="M100.865 65.4566C99.7029 57.303 87.3129 59.0003 88.4822 67.1635" stroke="#76F75C" stroke-width="4" stroke-linecap="round"/>
<path d="M65.6975 70.3042C64.5353 62.1506 52.1453 63.8479 53.3146 72.0111" stroke="#76F75C" stroke-width="4" stroke-linecap="round"/>
<path d="M86.4354 74.5292H69.4354V74.5292C69.4354 78.9475 73.0171 82.5292 77.4354 82.5292H78.4354C82.8537 82.5292 86.4354 78.9475 86.4354 74.5292V74.5292Z" fill="white"/>
<circle cx="9" cy="9" r="9" transform="matrix(-1 0 0 1 55.9045 79.6343)" fill="#B5C3CA"/>
<circle cx="9" cy="9" r="8.5" transform="matrix(-1 0 0 1 55.9045 74.6343)" fill="#E7E9EB" stroke="black"/>
<rect x="-0.0423055" y="-0.70584" width="45" height="2" transform="matrix(0.663535 -0.748146 -0.748146 -0.663535 134.84 53.1994)" fill="#583131" stroke="black"/>
<circle cx="9" cy="9" r="8.5" transform="matrix(-1 0 0 1 142.905 42.6343)" fill="#E7E9EB" stroke="black"/>
<path d="M77.9045 135.769C71.0356 135.769 64.8361 136.605 60.3704 137.944C58.1345 138.615 56.3613 139.404 55.1584 140.257C53.9425 141.119 53.4045 141.975 53.4045 142.769C53.4045 143.562 53.9425 144.418 55.1584 145.28C56.3613 146.133 58.1345 146.922 60.3704 147.593C64.8361 148.932 71.0356 149.769 77.9045 149.769C84.7735 149.769 90.973 148.932 95.4387 147.593C97.6746 146.922 99.4477 146.133 100.651 145.28C101.867 144.418 102.405 143.562 102.405 142.769C102.405 141.975 101.867 141.119 100.651 140.257C99.4477 139.404 97.6746 138.615 95.4387 137.944C90.973 136.605 84.7735 135.769 77.9045 135.769Z" fill="#CDD9DA" stroke="black"/>
<path d="M25.3428 10.9574C25.3541 9.69589 26.8225 9.01114 27.7962 9.81335L31.9818 13.2621C32.6349 13.8003 33.5162 13.9719 34.3233 13.7175L39.4961 12.0877C40.6995 11.7085 41.8052 12.8939 41.343 14.0679L39.3557 19.1139C39.0457 19.9013 39.1549 20.7925 39.6462 21.4815L42.7948 25.8976C43.5273 26.9249 42.7417 28.3428 41.4824 28.266L36.0687 27.935C35.2242 27.8836 34.4108 28.2629 33.9073 28.9429L30.681 33.3028C29.9304 34.3168 28.3392 34.0072 28.0231 32.7858L26.6641 27.5352C26.452 26.716 25.8396 26.0595 25.0371 25.7908L19.8943 24.0696C18.6978 23.6691 18.5005 22.0601 19.5644 21.382L24.138 18.467C24.8516 18.0122 25.2867 17.2268 25.2942 16.3806L25.3428 10.9574Z" fill="#FBB200" stroke="black"/>
<path d="M4.50609 41.6403C4.18666 41.3671 4.32641 40.8455 4.73963 40.7687L8.72177 40.03C9.22071 39.9373 9.63906 39.5986 9.83345 39.1298L11.3838 35.389C11.5448 35.0005 12.0845 34.9718 12.2852 35.3414L14.2183 38.8994C14.4606 39.3456 14.9117 39.6389 15.4178 39.6788L19.4544 39.9971C19.8736 40.0302 20.0678 40.5351 19.7785 40.8402L16.9916 43.7776C16.6422 44.146 16.5026 44.6667 16.6211 45.1605L17.5659 49.0977C17.6639 49.5067 17.2433 49.8468 16.8637 49.6658L13.2087 47.9232C12.7504 47.7047 12.2131 47.7332 11.7802 47.9984L8.32711 50.1132C7.96849 50.3329 7.51542 50.0383 7.57025 49.6213L8.09805 45.6065C8.1641 45.1033 7.97114 44.6008 7.58539 44.271L4.50609 41.6403Z" fill="#FBB200" stroke="black"/>
</svg>
