<svg width="166" height="151" viewBox="0 0 166 151" fill="none" xmlns="http://www.w3.org/2000/svg">
<rect x="-0.854082" y="1.12718" width="4" height="8" transform="matrix(-0.990633 0.136551 0.136551 0.990633 71.9017 22.7031)" fill="#B5C3CA" stroke="#A3B0B6" stroke-width="2"/>
<circle cx="39" cy="39" r="38" transform="matrix(-0.990633 0.136551 0.136551 0.990633 111.502 25.4486)" fill="#B5C3CA" stroke="#A3B0B6" stroke-width="2"/>
<path d="M96.9896 35.5246L48.9478 42.1468C47.0219 42.4123 45.2539 43.2616 44.0195 44.6617C36.2259 53.5024 32.1987 65.2863 33.887 77.5349C37.0487 100.472 59.0942 116.457 83.21 113.133C107.326 109.809 124.224 88.4551 121.063 65.5184C119.374 53.2698 112.309 43.0149 102.415 36.6124C100.847 35.5984 98.9155 35.2592 96.9896 35.5246Z" fill="#B5C3CA" stroke="#A3B0B6" stroke-width="2"/>
<path d="M97.2702 35.486L48.6672 42.1855C46.8993 42.4292 45.2636 43.1637 44.0588 44.3822C36.0901 52.4414 31.8954 63.0865 33.4047 74.0357C34.8542 84.5515 37.3746 93.5824 44.2114 99.3765C51.0307 105.156 62.4079 107.925 82.1176 105.208C100.818 102.63 111.045 96.8918 116.301 89.4248C121.564 81.9475 122.023 72.4875 120.58 62.0193C119.071 51.0701 112.153 41.9568 102.301 36.354C100.812 35.5069 99.0381 35.2423 97.2702 35.486Z" fill="#E7E9EB" stroke="#A3B0B6" stroke-width="2"/>
<circle cx="9" cy="9" r="8.5" transform="matrix(-0.990633 0.136551 0.136551 0.990633 77.3782 4.91577)" fill="black" stroke="black"/>
<rect width="75" height="41" rx="20" transform="matrix(-0.990633 0.136551 0.136551 0.990633 110.851 42.699)" fill="#9CABB2"/>
<rect width="69" height="35" rx="17.5" transform="matrix(-0.990633 0.136551 0.136551 0.990633 108.289 46.0806)" fill="black"/>
<path d="M100.865 65.4566C99.7029 57.303 87.3129 59.0003 88.4822 67.1635" stroke="#76F75C" stroke-width="4" stroke-linecap="round"/>
<path d="M65.6975 70.3041C64.5353 62.1505 52.1453 63.8478 53.3146 72.011" stroke="#76F75C" stroke-width="4" stroke-linecap="round"/>
<path d="M86.4354 74.5292H69.4354V74.5292C69.4354 78.9475 73.0171 82.5292 77.4354 82.5292H78.4354C82.8537 82.5292 86.4354 78.9475 86.4354 74.5292V74.5292Z" fill="white"/>
<circle cx="9" cy="9" r="8" transform="matrix(-1 0 0 1 55.9045 77)" fill="#E7E9EB" stroke="#A3B0B6" stroke-width="2"/>
<rect width="46" height="3" transform="matrix(0.663535 -0.748146 -0.748146 -0.663535 135.382 54.4053)" fill="#583131"/>
<circle cx="9" cy="9" r="8" transform="matrix(-1 0 0 1 142.905 42.6343)" fill="#E7E9EB" stroke="#A3B0B6" stroke-width="2"/>
<ellipse cx="25" cy="7.5" rx="25" ry="7.5" transform="matrix(-1 0 0 1 102.905 135.269)" fill="#DBE9EB"/>
<path d="M24.8426 10.9531C24.8575 9.2709 26.8162 8.35757 28.1144 9.42739L32.3 12.8766C32.8224 13.3071 33.5273 13.4441 34.173 13.2406L39.3458 11.6106C40.9503 11.105 42.4242 12.6855 41.8079 14.2508L39.821 19.2974C39.5729 19.9273 39.6604 20.64 40.0535 21.1912L43.2023 25.6072C44.1789 26.9769 43.1312 28.867 41.4521 28.7646L36.0385 28.4344C35.3628 28.3932 34.712 28.6966 34.3092 29.2408L31.0824 33.6001C30.0816 34.9522 27.9602 34.5398 27.5387 32.9112L26.1799 27.6606C26.0102 27.0051 25.5206 26.48 24.8786 26.2651L19.7355 24.5433C18.1403 24.0093 17.8769 21.8643 19.2955 20.9602L23.8693 18.0453C24.4402 17.6815 24.7883 17.0535 24.7944 16.3765L24.8426 10.9531Z" fill="#FBB200"/>
<path d="M4.18152 42.0206C3.54202 41.4743 3.82169 40.4305 4.6487 40.2771L8.63014 39.5385C8.96297 39.4768 9.24197 39.2508 9.37156 38.9381L10.9218 35.1972C11.2438 34.4202 12.3229 34.3637 12.7244 35.1028L14.6571 38.6611C14.8187 38.9586 15.1198 39.1541 15.4572 39.1807L19.4941 39.4991C20.3326 39.5652 20.7198 40.574 20.1409 41.1842L17.354 44.122C17.121 44.3676 17.0281 44.7144 17.1071 45.0435L18.0518 48.9812C18.248 49.7991 17.4082 50.4791 16.649 50.1171L12.9938 48.3744C12.6882 48.2287 12.3297 48.2475 12.0411 48.4243L8.58808 50.5396C7.87084 50.9789 6.96461 50.3904 7.07426 49.5565L7.60215 45.5417C7.64628 45.206 7.51762 44.8709 7.26026 44.651L4.18152 42.0206Z" fill="#FBB200"/>
</svg>
